<svg xmlns="http://www.w3.org/2000/svg" width="133.431" height="63.722" viewBox="0 0 133.431 63.722">
  <g id="yash-logo-new" transform="translate(0 0.004)">
    <path id="Path_8719" data-name="Path 8719" d="M96.6,90.642v-.986l.074,0q1.106,0,1.54-1.454l1.012.153a3.079,3.079,0,0,1-.916,1.71,2.413,2.413,0,0,1-1.643.576H96.6Zm0-3.391h0v-.988h1.618a2.7,2.7,0,0,0-.391-1.371,1.436,1.436,0,0,0-1.208-.66H96.6v-.987h.026a2.312,2.312,0,0,1,1.879.946,4.32,4.32,0,0,1,.753,2.74l0,.321Zm4.162,1.119h0l.974-.187a1.745,1.745,0,0,0,.473,1.11,1.666,1.666,0,0,0,2.016.048,1.036,1.036,0,0,0,.351-.8.783.783,0,0,0-.3-.655,3.793,3.793,0,0,0-1-.4,7.276,7.276,0,0,1-1.533-.6,1.68,1.68,0,0,1-.6-.659,2.025,2.025,0,0,1-.212-.939,1.975,1.975,0,0,1,.578-1.474,2.2,2.2,0,0,1,1.608-.566,2.622,2.622,0,0,1,1.135.234,1.8,1.8,0,0,1,.752.626,2.737,2.737,0,0,1,.359,1.125l-.96.162a1.151,1.151,0,0,0-1.26-1.16,1.492,1.492,0,0,0-.954.257.812.812,0,0,0-.311.655.74.74,0,0,0,.3.621,5.3,5.3,0,0,0,1.067.426,8.478,8.478,0,0,1,1.581.623,1.584,1.584,0,0,1,.559.628,2.091,2.091,0,0,1,.2.942,2.193,2.193,0,0,1-.644,1.64,2.418,2.418,0,0,1-1.757.626,2.286,2.286,0,0,1-2.42-2.279ZM96.6,83.246h0v.987a1.435,1.435,0,0,0-1.107.551,2.388,2.388,0,0,0-.511,1.48H96.6v.988h-1.68a3.072,3.072,0,0,0,.553,1.8,1.506,1.506,0,0,0,1.127.606v.986a2.446,2.446,0,0,1-1.931-.934,4.2,4.2,0,0,1-.762-2.7,4.4,4.4,0,0,1,.769-2.8,2.4,2.4,0,0,1,1.924-.964ZM86.418,93.356h0v-1a1.511,1.511,0,0,0,.9-.306,1.6,1.6,0,0,0,.523-.923,8.9,8.9,0,0,0,.086-1.572,2.278,2.278,0,0,1-.719.691,1.708,1.708,0,0,1-.794.233V89.49a1.377,1.377,0,0,0,1.126-.626,3.369,3.369,0,0,0,.466-1.993,3.328,3.328,0,0,0-.48-1.981,1.418,1.418,0,0,0-1.112-.65v-.993a1.758,1.758,0,0,1,.849.252,2.33,2.33,0,0,1,.75.76v-.853h.905v6.117a7.206,7.206,0,0,1-.266,2.33,2.258,2.258,0,0,1-.872,1.1,2.526,2.526,0,0,1-1.367.4Zm4.668-11.261h0V80.713h.98v1.381Zm0,8.39h0V83.407h.98v7.077Zm-4.668-7.236h0v.993h-.055a1.319,1.319,0,0,0-1.076.651,3.33,3.33,0,0,0-.462,1.929,3.529,3.529,0,0,0,.459,2.032,1.352,1.352,0,0,0,1.127.639h.007v.992l-.093,0A2.1,2.1,0,0,1,84.6,89.6a4.315,4.315,0,0,1-.787-2.711,5.258,5.258,0,0,1,.348-1.993,2.745,2.745,0,0,1,.91-1.253,2.133,2.133,0,0,1,1.262-.4l.087,0Zm0,9.112h0v1l-.093,0a2.347,2.347,0,0,1-1.734-.608A2.213,2.213,0,0,1,84,91.071l.96.173a1.234,1.234,0,0,0,.4.844,1.412,1.412,0,0,0,.926.275c.044,0,.086,0,.128,0ZM79.65,90.643h0v-.986h.025a1.444,1.444,0,0,0,1.19-.678,4.4,4.4,0,0,0,0-4.071,1.5,1.5,0,0,0-1.213-.669v-.994h0a2.426,2.426,0,0,1,1.938.934,4.083,4.083,0,0,1,.78,2.691A4.4,4.4,0,0,1,81.6,89.71a2.414,2.414,0,0,1-1.952.933Zm0-7.4h0v.994h-.027a1.452,1.452,0,0,0-1.194.674,4.438,4.438,0,0,0,.007,4.074,1.5,1.5,0,0,0,1.214.67v.986a2.421,2.421,0,0,1-1.942-.935A5.321,5.321,0,0,1,77.7,84.18a2.415,2.415,0,0,1,1.949-.934ZM69.6,90.643h0v-.986h.025a1.443,1.443,0,0,0,1.189-.678,4.4,4.4,0,0,0,0-4.071A1.5,1.5,0,0,0,69.6,84.24v-.994h0a2.425,2.425,0,0,1,1.938.934,4.083,4.083,0,0,1,.78,2.691,4.4,4.4,0,0,1-.767,2.839,2.413,2.413,0,0,1-1.951.933Zm4.515-.159h0V80.713h.978v9.771ZM69.6,83.246h0v.994h-.027a1.453,1.453,0,0,0-1.195.674,4.444,4.444,0,0,0,.007,4.074,1.5,1.5,0,0,0,1.215.67v.986a2.421,2.421,0,0,1-1.943-.935,5.319,5.319,0,0,1-.007-5.528,2.416,2.416,0,0,1,1.95-.934Zm-26.949,7.4h0v-.986l.074,0q1.106,0,1.54-1.454l1.012.153a3.083,3.083,0,0,1-.917,1.71,2.411,2.411,0,0,1-1.642.576h-.067Zm0-3.391h0v-.988h1.618a2.7,2.7,0,0,0-.391-1.371,1.434,1.434,0,0,0-1.208-.66h-.019v-.987h.026a2.311,2.311,0,0,1,1.879.946,4.319,4.319,0,0,1,.753,2.74l0,.321Zm8.341.639h0l.967.154a3.227,3.227,0,0,1-.837,1.932,2.192,2.192,0,0,1-1.609.667,2.289,2.289,0,0,1-1.877-.935,4.419,4.419,0,0,1-.737-2.771,4.351,4.351,0,0,1,.744-2.768,2.348,2.348,0,0,1,1.909-.923,2.174,2.174,0,0,1,1.517.56,2.762,2.762,0,0,1,.789,1.68l-.953.18a2.069,2.069,0,0,0-.487-1.076,1.112,1.112,0,0,0-.833-.358,1.44,1.44,0,0,0-1.2.644,3.467,3.467,0,0,0-.476,2.042,3.707,3.707,0,0,0,.457,2.093,1.378,1.378,0,0,0,1.169.646,1.254,1.254,0,0,0,.956-.429,2.351,2.351,0,0,0,.5-1.338Zm2.463,2.594h0V80.713h.981v3.505a2.467,2.467,0,0,1,.782-.73,1.957,1.957,0,0,1,.965-.243,1.883,1.883,0,0,1,1.463.591A3.258,3.258,0,0,1,58.181,86v4.486H57.2V86a2.093,2.093,0,0,0-.328-1.319,1.1,1.1,0,0,0-.9-.4,1.4,1.4,0,0,0-1.09.514,2.794,2.794,0,0,0-.45,1.82v3.872Zm6.9,0h0V83.407h.887v1.005a2.314,2.314,0,0,1,.783-.876,1.968,1.968,0,0,1,1.064-.291,2.026,2.026,0,0,1,.862.184,1.776,1.776,0,0,1,.639.48,1.938,1.938,0,0,1,.364.769,6.46,6.46,0,0,1,.121,1.454v4.352h-.988V86.177a3.492,3.492,0,0,0-.134-1.139,1.107,1.107,0,0,0-1.072-.753,1.369,1.369,0,0,0-1.126.528,2.955,2.955,0,0,0-.421,1.806v3.866Zm-24.129,0h0V81.867H33.581V80.713h6.351v1.154H37.279v8.617Zm6.43-7.238h0v.987a1.434,1.434,0,0,0-1.107.551,2.391,2.391,0,0,0-.512,1.48h1.619v.988h-1.68a3.07,3.07,0,0,0,.553,1.8,1.507,1.507,0,0,0,1.127.606v.986a2.445,2.445,0,0,1-1.93-.934,4.2,4.2,0,0,1-.762-2.7,4.4,4.4,0,0,1,.769-2.8A2.394,2.394,0,0,1,42.649,83.246Z" transform="translate(-27.727 -41.759)" fill="#a89044"/>
    <path id="Path_8720" data-name="Path 8720" d="M71.107,41.5h0l7.16-.446a5.03,5.03,0,0,0,.7,2.644,3.59,3.59,0,0,0,3.172,1.466,3.936,3.936,0,0,0,2.536-.75A2.5,2.5,0,0,0,85.7,42.671a2.021,2.021,0,0,0-.671-1.686,8.712,8.712,0,0,0-3.707-1.4q-4.822-1.108-6.754-2.937a5.416,5.416,0,0,1-1.695-4.674,6.883,6.883,0,0,1,1.4-3.529,8.18,8.18,0,0,1,3.487-2.61,15.894,15.894,0,0,1,6.038-.947q4.643,0,6.925,1.725t2.406,5.49l-7.09.412a3.426,3.426,0,0,0-.971-2.379A3.533,3.533,0,0,0,82.65,29.4a3.2,3.2,0,0,0-2.017.552,1.881,1.881,0,0,0-.78,1.348,1.227,1.227,0,0,0,.448,1.037,5.626,5.626,0,0,0,2.435.891,28.854,28.854,0,0,1,6.832,2.142,6.039,6.039,0,0,1,3.5,6.268,8.319,8.319,0,0,1-1.676,4.29,9.111,9.111,0,0,1-3.87,2.983,15.231,15.231,0,0,1-5.92,1.015q-6.172,0-8.338-2.379A8.55,8.55,0,0,1,71.107,41.5ZM97.874,25.3h7.48l-.761,8.473h8.179l.761-8.473h7.514l-2.173,24.212H111.36l.879-9.792H104.06l-.879,9.792H95.7L97.874,25.3Zm-51.563,0h2.921l-2.921,3.849ZM57.322,45.512V40.275h2.669l-1.9-8.7-.773,1.954V25.3h5.5l6.931,24.212h-7.83l-.831-4Zm0-20.215H54.662L46.311,43.235v6.274h4.723l1.531-4h4.757V40.275H54.653l2.669-6.75Zm-34.434,0H31.2l4.154,8.174L40.973,25.3h5.338v3.849L38.554,39.367l-.91,10.142h-7.5l.91-10.142L22.889,25.3ZM46.311,43.235h0L43.39,49.509h2.921Z" transform="translate(-22.889 -16.491)" fill="#e23827"/>
    <path id="Path_8721" data-name="Path 8721" d="M79.76,25.6l6.931,24.215H78.863l-.832-4H74.264V40.581h2.672l-1.9-8.705-.772,1.955V25.6ZM71.6,40.581l2.666-6.751V25.6H71.6L63.254,43.543v6.274h4.725l1.527-4h4.758V40.581ZM60.33,49.817h2.924V43.543Z" transform="translate(-39.831 -16.82)" fill="#e23827"/>
    <path id="Path_8722" data-name="Path 8722" d="M128.814,16.173c16.246.414,36.63,3.713,37.716,15.081,1.977,20.728-49.719,38.559-79.313,44.779,27.213-3.731,57.159-11.545,80.864-26.121,10.465-6.436,19.3-16.453,13.813-24.256-8.384-11.928-40.561-10.21-53.081-9.484Z" transform="translate(-51.998 -12.316)" fill="#005ba1" fill-rule="evenodd"/>
    <path id="Path_8723" data-name="Path 8723" d="M255.2,12.675a3.12,3.12,0,1,1,3.12,3.12,3.12,3.12,0,0,1-3.12-3.12Zm5.732,0a2.611,2.611,0,1,0-1.611,2.415A2.612,2.612,0,0,0,260.936,12.675ZM259.3,14.558l-.976-1.652h-.555v1.652h-.55V10.714h.985q1.387,0,1.388,1.064a1.066,1.066,0,0,1-.745,1.046l1.051,1.735Zm-1.531-3.373v1.277q.07.009.361.009a1.318,1.318,0,0,0,.722-.136.612.612,0,0,0,.185-.52q0-.634-.832-.634h-.218Z" transform="translate(-128.014 -9.559)" fill="#231f20"/>
    <rect id="Rectangle_708" data-name="Rectangle 708" width="2.395" height="5.201" transform="translate(33.732 23.782)" fill="#e23827"/>
  </g>
</svg>
